<svg width="377" height="162" viewBox="0 0 377 162" fill="none" xmlns="http://www.w3.org/2000/svg">
	<g filter="url(#filter0_d)">
		<path style="fill: #151515; @media (prefers-color-scheme: dark) { fill: #FFFFFF; }" d="M21.1189 147.95C-11.0304 120.167 -5.24687 74.4865 30.1344 50.9645L48.5054 67.4981C17.2066 88.6339 22.6805 117.899 36.7684 128.178C63.6445 147.788 76.8862 122.894 76.8862 122.894L51.3709 99.5427L70.2523 86.9294L106 118.803C96.9846 159.371 48.6755 171.765 21.1189 147.95Z" />
		<path style="fill: #5328FE" d="M106 0V105.508L84.9073 86.418V43.4647L57.3245 61.7028L38.9534 45.1692L106 0Z" />
		<path style="fill: #151515; @media (prefers-color-scheme: dark) { fill: #FFFFFF; }" d="M150.9 51.35C147.267 51.35 144.633 52.3667 143 54.4C141.4 56.4 140.6 59.15 140.6 62.65C140.6 64.35 140.8 65.9 141.2 67.3C141.6 68.6667 142.2 69.85 143 70.85C143.8 71.85 144.8 72.6333 146 73.2C147.2 73.7333 148.6 74 150.2 74C151.067 74 151.8 73.9833 152.4 73.95C153.033 73.9167 153.583 73.85 154.05 73.75V61.7H161.85V78.85C160.917 79.2167 159.417 79.6 157.35 80C155.283 80.4333 152.733 80.65 149.7 80.65C147.1 80.65 144.733 80.25 142.6 79.45C140.5 78.65 138.7 77.4833 137.2 75.95C135.7 74.4167 134.533 72.5333 133.7 70.3C132.9 68.0667 132.5 65.5167 132.5 62.65C132.5 59.75 132.95 57.1833 133.85 54.95C134.75 52.7167 135.983 50.8333 137.55 49.3C139.117 47.7333 140.95 46.55 143.05 45.75C145.183 44.95 147.45 44.55 149.85 44.55C151.483 44.55 152.95 44.6667 154.25 44.9C155.583 45.1 156.717 45.35 157.65 45.65C158.617 45.9167 159.4 46.2 160 46.5C160.633 46.8 161.083 47.0333 161.35 47.2L159.1 53.45C158.033 52.8833 156.8 52.4 155.4 52C154.033 51.5667 152.533 51.35 150.9 51.35ZM191.057 79.1C189.791 79.4667 188.157 79.8 186.157 80.1C184.157 80.4333 182.057 80.6 179.857 80.6C177.624 80.6 175.757 80.3 174.257 79.7C172.791 79.1 171.624 78.2667 170.757 77.2C169.891 76.1 169.274 74.8 168.907 73.3C168.541 71.8 168.357 70.15 168.357 68.35V53.7H175.807V67.45C175.807 69.85 176.124 71.5833 176.757 72.65C177.391 73.7167 178.574 74.25 180.307 74.25C180.841 74.25 181.407 74.2333 182.007 74.2C182.607 74.1333 183.141 74.0667 183.607 74V53.7H191.057V79.1ZM205.501 80H198.051V53.7H205.501V80ZM206.201 46.1C206.201 47.4667 205.751 48.55 204.851 49.35C203.984 50.1167 202.951 50.5 201.751 50.5C200.551 50.5 199.501 50.1167 198.601 49.35C197.734 48.55 197.301 47.4667 197.301 46.1C197.301 44.7333 197.734 43.6667 198.601 42.9C199.501 42.1 200.551 41.7 201.751 41.7C202.951 41.7 203.984 42.1 204.851 42.9C205.751 43.6667 206.201 44.7333 206.201 46.1ZM223.004 80.5C220.837 80.4667 219.071 80.2333 217.704 79.8C216.371 79.3667 215.304 78.7667 214.504 78C213.737 77.2 213.204 76.25 212.904 75.15C212.637 74.0167 212.504 72.75 212.504 71.35V42.4L219.954 41.2V69.85C219.954 70.5167 220.004 71.1167 220.104 71.65C220.204 72.1833 220.387 72.6333 220.654 73C220.954 73.3667 221.371 73.6667 221.904 73.9C222.437 74.1333 223.154 74.2833 224.054 74.35L223.004 80.5ZM228.324 80V42.4L235.774 41.2V53.8C236.274 53.6333 236.908 53.4833 237.674 53.35C238.474 53.1833 239.241 53.1 239.974 53.1C242.108 53.1 243.874 53.4 245.274 54C246.708 54.5667 247.841 55.3833 248.674 56.45C249.541 57.5167 250.141 58.7833 250.474 60.25C250.841 61.7167 251.024 63.35 251.024 65.15V80H243.574V66.05C243.574 63.65 243.258 61.95 242.624 60.95C242.024 59.95 240.891 59.45 239.224 59.45C238.558 59.45 237.924 59.5167 237.324 59.65C236.758 59.75 236.241 59.8667 235.774 60V80H228.324ZM256.518 67.05C256.518 64.7167 256.868 62.6833 257.568 60.95C258.301 59.1833 259.251 57.7167 260.418 56.55C261.584 55.3833 262.918 54.5 264.418 53.9C265.951 53.3 267.518 53 269.118 53C272.851 53 275.801 54.15 277.968 56.45C280.134 58.7167 281.218 62.0667 281.218 66.5C281.218 66.9333 281.201 67.4167 281.168 67.95C281.134 68.45 281.101 68.9 281.068 69.3H264.168C264.334 70.8333 265.051 72.05 266.318 72.95C267.584 73.85 269.284 74.3 271.418 74.3C272.784 74.3 274.118 74.1833 275.418 73.95C276.751 73.6833 277.834 73.3667 278.668 73L279.668 79.05C279.268 79.25 278.734 79.45 278.068 79.65C277.401 79.85 276.651 80.0167 275.818 80.15C275.018 80.3167 274.151 80.45 273.218 80.55C272.284 80.65 271.351 80.7 270.418 80.7C268.051 80.7 265.984 80.35 264.218 79.65C262.484 78.95 261.034 78 259.868 76.8C258.734 75.5667 257.884 74.1167 257.318 72.45C256.784 70.7833 256.518 68.9833 256.518 67.05ZM274.018 64.2C273.984 63.5667 273.868 62.95 273.668 62.35C273.501 61.75 273.218 61.2167 272.818 60.75C272.451 60.2833 271.968 59.9 271.368 59.6C270.801 59.3 270.084 59.15 269.218 59.15C268.384 59.15 267.668 59.3 267.068 59.6C266.468 59.8667 265.968 60.2333 265.568 60.7C265.168 61.1667 264.851 61.7167 264.618 62.35C264.418 62.95 264.268 63.5667 264.168 64.2H274.018ZM302.817 60.3C302.15 60.1333 301.367 59.9667 300.467 59.8C299.567 59.6 298.6 59.5 297.567 59.5C297.1 59.5 296.533 59.55 295.867 59.65C295.233 59.7167 294.75 59.8 294.417 59.9V80H286.967V55.1C288.3 54.6333 289.867 54.2 291.667 53.8C293.5 53.3667 295.533 53.15 297.767 53.15C298.167 53.15 298.65 53.1833 299.217 53.25C299.783 53.2833 300.35 53.35 300.917 53.45C301.483 53.5167 302.05 53.6167 302.617 53.75C303.183 53.85 303.667 53.9833 304.067 54.15L302.817 60.3ZM322.511 66.05C322.511 63.65 322.194 61.95 321.561 60.95C320.961 59.95 319.911 59.45 318.411 59.45C317.944 59.45 317.461 59.4833 316.961 59.55C316.461 59.5833 315.977 59.6333 315.511 59.7V80H308.061V54.6C308.694 54.4333 309.427 54.2667 310.261 54.1C311.127 53.9 312.027 53.7333 312.961 53.6C313.927 53.4333 314.911 53.3167 315.911 53.25C316.911 53.15 317.894 53.1 318.861 53.1C320.761 53.1 322.294 53.35 323.461 53.85C324.661 54.3167 325.644 54.8833 326.411 55.55C327.477 54.7833 328.694 54.1833 330.061 53.75C331.461 53.3167 332.744 53.1 333.911 53.1C336.011 53.1 337.727 53.4 339.061 54C340.427 54.5667 341.511 55.3833 342.311 56.45C343.111 57.5167 343.661 58.7833 343.961 60.25C344.261 61.7167 344.411 63.35 344.411 65.15V80H336.961V66.05C336.961 63.65 336.644 61.95 336.011 60.95C335.411 59.95 334.361 59.45 332.861 59.45C332.461 59.45 331.894 59.55 331.161 59.75C330.461 59.95 329.877 60.2 329.411 60.5C329.644 61.2667 329.794 62.0833 329.861 62.95C329.927 63.7833 329.961 64.6833 329.961 65.65V80H322.511V66.05ZM349.926 67.05C349.926 64.7167 350.276 62.6833 350.976 60.95C351.709 59.1833 352.659 57.7167 353.826 56.55C354.992 55.3833 356.326 54.5 357.826 53.9C359.359 53.3 360.926 53 362.526 53C366.259 53 369.209 54.15 371.376 56.45C373.542 58.7167 374.626 62.0667 374.626 66.5C374.626 66.9333 374.609 67.4167 374.576 67.95C374.542 68.45 374.509 68.9 374.476 69.3H357.576C357.742 70.8333 358.459 72.05 359.726 72.95C360.992 73.85 362.692 74.3 364.826 74.3C366.192 74.3 367.526 74.1833 368.826 73.95C370.159 73.6833 371.242 73.3667 372.076 73L373.076 79.05C372.676 79.25 372.142 79.45 371.476 79.65C370.809 79.85 370.059 80.0167 369.226 80.15C368.426 80.3167 367.559 80.45 366.626 80.55C365.692 80.65 364.759 80.7 363.826 80.7C361.459 80.7 359.392 80.35 357.626 79.65C355.892 78.95 354.442 78 353.276 76.8C352.142 75.5667 351.292 74.1167 350.726 72.45C350.192 70.7833 349.926 68.9833 349.926 67.05ZM367.426 64.2C367.392 63.5667 367.276 62.95 367.076 62.35C366.909 61.75 366.626 61.2167 366.226 60.75C365.859 60.2833 365.376 59.9 364.776 59.6C364.209 59.3 363.492 59.15 362.626 59.15C361.792 59.15 361.076 59.3 360.476 59.6C359.876 59.8667 359.376 60.2333 358.976 60.7C358.576 61.1667 358.259 61.7167 358.026 62.35C357.826 62.95 357.676 63.5667 357.576 64.2H367.426Z" />
		<path style="fill: #5328FE" d="M143.2 85.35C143.8 86.45 144.483 87.8167 145.25 89.45C146.05 91.05 146.867 92.8 147.7 94.7C148.567 96.5667 149.417 98.4833 150.25 100.45C151.083 102.417 151.867 104.267 152.6 106C153.333 104.267 154.117 102.417 154.95 100.45C155.783 98.4833 156.617 96.5667 157.45 94.7C158.317 92.8 159.133 91.05 159.9 89.45C160.7 87.8167 161.4 86.45 162 85.35H169.1C169.433 87.65 169.733 90.2333 170 93.1C170.3 95.9333 170.55 98.9 170.75 102C170.983 105.067 171.183 108.15 171.35 111.25C171.55 114.35 171.717 117.267 171.85 120H164.25C164.15 116.633 164.017 112.967 163.85 109C163.683 105.033 163.433 101.033 163.1 97C162.5 98.4 161.833 99.95 161.1 101.65C160.367 103.35 159.633 105.05 158.9 106.75C158.2 108.45 157.517 110.083 156.85 111.65C156.183 113.183 155.617 114.5 155.15 115.6H149.7C149.233 114.5 148.667 113.183 148 111.65C147.333 110.083 146.633 108.45 145.9 106.75C145.2 105.05 144.483 103.35 143.75 101.65C143.017 99.95 142.35 98.4 141.75 97C141.417 101.033 141.167 105.033 141 109C140.833 112.967 140.7 116.633 140.6 120H133C133.133 117.267 133.283 114.35 133.45 111.25C133.65 108.15 133.85 105.067 134.05 102C134.283 98.9 134.533 95.9333 134.8 93.1C135.1 90.2333 135.417 87.65 135.75 85.35H143.2ZM202.973 106.8C202.973 108.867 202.673 110.767 202.073 112.5C201.473 114.2 200.606 115.667 199.473 116.9C198.34 118.1 196.973 119.033 195.373 119.7C193.806 120.367 192.04 120.7 190.073 120.7C188.14 120.7 186.373 120.367 184.773 119.7C183.206 119.033 181.856 118.1 180.723 116.9C179.59 115.667 178.706 114.2 178.073 112.5C177.44 110.767 177.123 108.867 177.123 106.8C177.123 104.733 177.44 102.85 178.073 101.15C178.74 99.45 179.64 98 180.773 96.8C181.94 95.6 183.306 94.6667 184.873 94C186.473 93.3333 188.206 93 190.073 93C191.973 93 193.706 93.3333 195.273 94C196.873 94.6667 198.24 95.6 199.373 96.8C200.506 98 201.39 99.45 202.023 101.15C202.656 102.85 202.973 104.733 202.973 106.8ZM195.373 106.8C195.373 104.5 194.906 102.7 193.973 101.4C193.073 100.067 191.773 99.4 190.073 99.4C188.373 99.4 187.056 100.067 186.123 101.4C185.19 102.7 184.723 104.5 184.723 106.8C184.723 109.1 185.19 110.933 186.123 112.3C187.056 113.633 188.373 114.3 190.073 114.3C191.773 114.3 193.073 113.633 193.973 112.3C194.906 110.933 195.373 109.1 195.373 106.8ZM208.494 87.15L215.944 85.95V93.7H224.894V99.9H215.944V109.15C215.944 110.717 216.211 111.967 216.744 112.9C217.311 113.833 218.427 114.3 220.094 114.3C220.894 114.3 221.711 114.233 222.544 114.1C223.411 113.933 224.194 113.717 224.894 113.45L225.944 119.25C225.044 119.617 224.044 119.933 222.944 120.2C221.844 120.467 220.494 120.6 218.894 120.6C216.861 120.6 215.177 120.333 213.844 119.8C212.511 119.233 211.444 118.467 210.644 117.5C209.844 116.5 209.277 115.3 208.944 113.9C208.644 112.5 208.494 110.95 208.494 109.25V87.15ZM240.034 114.8C240.768 114.8 241.468 114.783 242.134 114.75C242.801 114.717 243.334 114.667 243.734 114.6V108.95C243.434 108.883 242.984 108.817 242.384 108.75C241.784 108.683 241.234 108.65 240.734 108.65C240.034 108.65 239.368 108.7 238.734 108.8C238.134 108.867 237.601 109.017 237.134 109.25C236.668 109.483 236.301 109.8 236.034 110.2C235.768 110.6 235.634 111.1 235.634 111.7C235.634 112.867 236.018 113.683 236.784 114.15C237.584 114.583 238.668 114.8 240.034 114.8ZM239.434 93C241.634 93 243.468 93.25 244.934 93.75C246.401 94.25 247.568 94.9667 248.434 95.9C249.334 96.8333 249.968 97.9667 250.334 99.3C250.701 100.633 250.884 102.117 250.884 103.75V119.25C249.818 119.483 248.334 119.75 246.434 120.05C244.534 120.383 242.234 120.55 239.534 120.55C237.834 120.55 236.284 120.4 234.884 120.1C233.518 119.8 232.334 119.317 231.334 118.65C230.334 117.95 229.568 117.05 229.034 115.95C228.501 114.85 228.234 113.5 228.234 111.9C228.234 110.367 228.534 109.067 229.134 108C229.768 106.933 230.601 106.083 231.634 105.45C232.668 104.817 233.851 104.367 235.184 104.1C236.518 103.8 237.901 103.65 239.334 103.65C240.301 103.65 241.151 103.7 241.884 103.8C242.651 103.867 243.268 103.967 243.734 104.1V103.4C243.734 102.133 243.351 101.117 242.584 100.35C241.818 99.5833 240.484 99.2 238.584 99.2C237.318 99.2 236.068 99.3 234.834 99.5C233.601 99.6667 232.534 99.9167 231.634 100.25L230.684 94.25C231.118 94.1167 231.651 93.9833 232.284 93.85C232.951 93.6833 233.668 93.55 234.434 93.45C235.201 93.3167 236.001 93.2167 236.834 93.15C237.701 93.05 238.568 93 239.434 93Z" />
	</g>
	<defs>
	<filter id="filter0_d" x="0" y="0" width="374.626" height="162" filterUnits="userSpaceOnUse" color-interpolation-filters="sRGB">
	<feFlood flood-opacity="0" result="BackgroundImageFix"/>
	<feColorMatrix in="SourceAlpha" type="matrix" values="0 0 0 0 0 0 0 0 0 0 0 0 0 0 0 0 0 0 127 0"/>
	<feOffset dy="2"/>
	<feColorMatrix type="matrix" values="0 0 0 0 0 0 0 0 0 0 0 0 0 0 0 0 0 0 0.1 0"/>
	<feBlend mode="normal" in2="BackgroundImageFix" result="effect1_dropShadow"/>
	<feBlend mode="normal" in="SourceGraphic" in2="effect1_dropShadow" result="shape"/>
	</filter>
	</defs>
</svg>
