<svg width="420" height="203" viewBox="0 0 420 203" fill="none" xmlns="http://www.w3.org/2000/svg">
<rect width="420" height="203" fill="white"/>
<g filter="url(#filter0_d)">
<path d="M44.1189 168.95C11.9696 141.167 17.7531 95.4865 53.1344 71.9645L71.5054 88.4981C40.2066 109.634 45.6805 138.899 59.7684 149.178C86.6445 168.788 99.8862 143.894 99.8862 143.894L74.3709 120.543L93.2523 107.929L129 139.803C119.985 180.371 71.6755 192.765 44.1189 168.95Z" fill="#151515"/>
<path d="M129 21V126.508L107.907 107.418V64.4647L80.3245 82.7028L61.9534 66.1692L129 21Z" fill="#5328FE"/>
<path d="M173.9 72.35C170.267 72.35 167.633 73.3667 166 75.4C164.4 77.4 163.6 80.15 163.6 83.65C163.6 85.35 163.8 86.9 164.2 88.3C164.6 89.6667 165.2 90.85 166 91.85C166.8 92.85 167.8 93.6333 169 94.2C170.2 94.7333 171.6 95 173.2 95C174.067 95 174.8 94.9833 175.4 94.95C176.033 94.9167 176.583 94.85 177.05 94.75V82.7H184.85V99.85C183.917 100.217 182.417 100.6 180.35 101C178.283 101.433 175.733 101.65 172.7 101.65C170.1 101.65 167.733 101.25 165.6 100.45C163.5 99.65 161.7 98.4833 160.2 96.95C158.7 95.4167 157.533 93.5333 156.7 91.3C155.9 89.0667 155.5 86.5167 155.5 83.65C155.5 80.75 155.95 78.1833 156.85 75.95C157.75 73.7167 158.983 71.8333 160.55 70.3C162.117 68.7333 163.95 67.55 166.05 66.75C168.183 65.95 170.45 65.55 172.85 65.55C174.483 65.55 175.95 65.6667 177.25 65.9C178.583 66.1 179.717 66.35 180.65 66.65C181.617 66.9167 182.4 67.2 183 67.5C183.633 67.8 184.083 68.0333 184.35 68.2L182.1 74.45C181.033 73.8833 179.8 73.4 178.4 73C177.033 72.5667 175.533 72.35 173.9 72.35ZM214.057 100.1C212.791 100.467 211.157 100.8 209.157 101.1C207.157 101.433 205.057 101.6 202.857 101.6C200.624 101.6 198.757 101.3 197.257 100.7C195.791 100.1 194.624 99.2667 193.757 98.2C192.891 97.1 192.274 95.8 191.907 94.3C191.541 92.8 191.357 91.15 191.357 89.35V74.7H198.807V88.45C198.807 90.85 199.124 92.5833 199.757 93.65C200.391 94.7167 201.574 95.25 203.307 95.25C203.841 95.25 204.407 95.2333 205.007 95.2C205.607 95.1333 206.141 95.0667 206.607 95V74.7H214.057V100.1ZM228.501 101H221.051V74.7H228.501V101ZM229.201 67.1C229.201 68.4667 228.751 69.55 227.851 70.35C226.984 71.1167 225.951 71.5 224.751 71.5C223.551 71.5 222.501 71.1167 221.601 70.35C220.734 69.55 220.301 68.4667 220.301 67.1C220.301 65.7333 220.734 64.6667 221.601 63.9C222.501 63.1 223.551 62.7 224.751 62.7C225.951 62.7 226.984 63.1 227.851 63.9C228.751 64.6667 229.201 65.7333 229.201 67.1ZM246.004 101.5C243.837 101.467 242.071 101.233 240.704 100.8C239.371 100.367 238.304 99.7667 237.504 99C236.737 98.2 236.204 97.25 235.904 96.15C235.637 95.0167 235.504 93.75 235.504 92.35V63.4L242.954 62.2V90.85C242.954 91.5167 243.004 92.1167 243.104 92.65C243.204 93.1833 243.387 93.6333 243.654 94C243.954 94.3667 244.371 94.6667 244.904 94.9C245.437 95.1333 246.154 95.2833 247.054 95.35L246.004 101.5ZM251.324 101V63.4L258.774 62.2V74.8C259.274 74.6333 259.908 74.4833 260.674 74.35C261.474 74.1833 262.241 74.1 262.974 74.1C265.108 74.1 266.874 74.4 268.274 75C269.708 75.5667 270.841 76.3833 271.674 77.45C272.541 78.5167 273.141 79.7833 273.474 81.25C273.841 82.7167 274.024 84.35 274.024 86.15V101H266.574V87.05C266.574 84.65 266.258 82.95 265.624 81.95C265.024 80.95 263.891 80.45 262.224 80.45C261.558 80.45 260.924 80.5167 260.324 80.65C259.758 80.75 259.241 80.8667 258.774 81V101H251.324ZM279.518 88.05C279.518 85.7167 279.868 83.6833 280.568 81.95C281.301 80.1833 282.251 78.7167 283.418 77.55C284.584 76.3833 285.918 75.5 287.418 74.9C288.951 74.3 290.518 74 292.118 74C295.851 74 298.801 75.15 300.968 77.45C303.134 79.7167 304.218 83.0667 304.218 87.5C304.218 87.9333 304.201 88.4167 304.168 88.95C304.134 89.45 304.101 89.9 304.068 90.3H287.168C287.334 91.8333 288.051 93.05 289.318 93.95C290.584 94.85 292.284 95.3 294.418 95.3C295.784 95.3 297.118 95.1833 298.418 94.95C299.751 94.6833 300.834 94.3667 301.668 94L302.668 100.05C302.268 100.25 301.734 100.45 301.068 100.65C300.401 100.85 299.651 101.017 298.818 101.15C298.018 101.317 297.151 101.45 296.218 101.55C295.284 101.65 294.351 101.7 293.418 101.7C291.051 101.7 288.984 101.35 287.218 100.65C285.484 99.95 284.034 99 282.868 97.8C281.734 96.5667 280.884 95.1167 280.318 93.45C279.784 91.7833 279.518 89.9833 279.518 88.05ZM297.018 85.2C296.984 84.5667 296.868 83.95 296.668 83.35C296.501 82.75 296.218 82.2167 295.818 81.75C295.451 81.2833 294.968 80.9 294.368 80.6C293.801 80.3 293.084 80.15 292.218 80.15C291.384 80.15 290.668 80.3 290.068 80.6C289.468 80.8667 288.968 81.2333 288.568 81.7C288.168 82.1667 287.851 82.7167 287.618 83.35C287.418 83.95 287.268 84.5667 287.168 85.2H297.018ZM325.817 81.3C325.15 81.1333 324.367 80.9667 323.467 80.8C322.567 80.6 321.6 80.5 320.567 80.5C320.1 80.5 319.533 80.55 318.867 80.65C318.233 80.7167 317.75 80.8 317.417 80.9V101H309.967V76.1C311.3 75.6333 312.867 75.2 314.667 74.8C316.5 74.3667 318.533 74.15 320.767 74.15C321.167 74.15 321.65 74.1833 322.217 74.25C322.783 74.2833 323.35 74.35 323.917 74.45C324.483 74.5167 325.05 74.6167 325.617 74.75C326.183 74.85 326.667 74.9833 327.067 75.15L325.817 81.3ZM345.511 87.05C345.511 84.65 345.194 82.95 344.561 81.95C343.961 80.95 342.911 80.45 341.411 80.45C340.944 80.45 340.461 80.4833 339.961 80.55C339.461 80.5833 338.977 80.6333 338.511 80.7V101H331.061V75.6C331.694 75.4333 332.427 75.2667 333.261 75.1C334.127 74.9 335.027 74.7333 335.961 74.6C336.927 74.4333 337.911 74.3167 338.911 74.25C339.911 74.15 340.894 74.1 341.861 74.1C343.761 74.1 345.294 74.35 346.461 74.85C347.661 75.3167 348.644 75.8833 349.411 76.55C350.477 75.7833 351.694 75.1833 353.061 74.75C354.461 74.3167 355.744 74.1 356.911 74.1C359.011 74.1 360.727 74.4 362.061 75C363.427 75.5667 364.511 76.3833 365.311 77.45C366.111 78.5167 366.661 79.7833 366.961 81.25C367.261 82.7167 367.411 84.35 367.411 86.15V101H359.961V87.05C359.961 84.65 359.644 82.95 359.011 81.95C358.411 80.95 357.361 80.45 355.861 80.45C355.461 80.45 354.894 80.55 354.161 80.75C353.461 80.95 352.877 81.2 352.411 81.5C352.644 82.2667 352.794 83.0833 352.861 83.95C352.927 84.7833 352.961 85.6833 352.961 86.65V101H345.511V87.05ZM372.926 88.05C372.926 85.7167 373.276 83.6833 373.976 81.95C374.709 80.1833 375.659 78.7167 376.826 77.55C377.992 76.3833 379.326 75.5 380.826 74.9C382.359 74.3 383.926 74 385.526 74C389.259 74 392.209 75.15 394.376 77.45C396.542 79.7167 397.626 83.0667 397.626 87.5C397.626 87.9333 397.609 88.4167 397.576 88.95C397.542 89.45 397.509 89.9 397.476 90.3H380.576C380.742 91.8333 381.459 93.05 382.726 93.95C383.992 94.85 385.692 95.3 387.826 95.3C389.192 95.3 390.526 95.1833 391.826 94.95C393.159 94.6833 394.242 94.3667 395.076 94L396.076 100.05C395.676 100.25 395.142 100.45 394.476 100.65C393.809 100.85 393.059 101.017 392.226 101.15C391.426 101.317 390.559 101.45 389.626 101.55C388.692 101.65 387.759 101.7 386.826 101.7C384.459 101.7 382.392 101.35 380.626 100.65C378.892 99.95 377.442 99 376.276 97.8C375.142 96.5667 374.292 95.1167 373.726 93.45C373.192 91.7833 372.926 89.9833 372.926 88.05ZM390.426 85.2C390.392 84.5667 390.276 83.95 390.076 83.35C389.909 82.75 389.626 82.2167 389.226 81.75C388.859 81.2833 388.376 80.9 387.776 80.6C387.209 80.3 386.492 80.15 385.626 80.15C384.792 80.15 384.076 80.3 383.476 80.6C382.876 80.8667 382.376 81.2333 381.976 81.7C381.576 82.1667 381.259 82.7167 381.026 83.35C380.826 83.95 380.676 84.5667 380.576 85.2H390.426Z" fill="#151515"/>
<path d="M166.2 106.35C166.8 107.45 167.483 108.817 168.25 110.45C169.05 112.05 169.867 113.8 170.7 115.7C171.567 117.567 172.417 119.483 173.25 121.45C174.083 123.417 174.867 125.267 175.6 127C176.333 125.267 177.117 123.417 177.95 121.45C178.783 119.483 179.617 117.567 180.45 115.7C181.317 113.8 182.133 112.05 182.9 110.45C183.7 108.817 184.4 107.45 185 106.35H192.1C192.433 108.65 192.733 111.233 193 114.1C193.3 116.933 193.55 119.9 193.75 123C193.983 126.067 194.183 129.15 194.35 132.25C194.55 135.35 194.717 138.267 194.85 141H187.25C187.15 137.633 187.017 133.967 186.85 130C186.683 126.033 186.433 122.033 186.1 118C185.5 119.4 184.833 120.95 184.1 122.65C183.367 124.35 182.633 126.05 181.9 127.75C181.2 129.45 180.517 131.083 179.85 132.65C179.183 134.183 178.617 135.5 178.15 136.6H172.7C172.233 135.5 171.667 134.183 171 132.65C170.333 131.083 169.633 129.45 168.9 127.75C168.2 126.05 167.483 124.35 166.75 122.65C166.017 120.95 165.35 119.4 164.75 118C164.417 122.033 164.167 126.033 164 130C163.833 133.967 163.7 137.633 163.6 141H156C156.133 138.267 156.283 135.35 156.45 132.25C156.65 129.15 156.85 126.067 157.05 123C157.283 119.9 157.533 116.933 157.8 114.1C158.1 111.233 158.417 108.65 158.75 106.35H166.2ZM225.973 127.8C225.973 129.867 225.673 131.767 225.073 133.5C224.473 135.2 223.606 136.667 222.473 137.9C221.34 139.1 219.973 140.033 218.373 140.7C216.806 141.367 215.04 141.7 213.073 141.7C211.14 141.7 209.373 141.367 207.773 140.7C206.206 140.033 204.856 139.1 203.723 137.9C202.59 136.667 201.706 135.2 201.073 133.5C200.44 131.767 200.123 129.867 200.123 127.8C200.123 125.733 200.44 123.85 201.073 122.15C201.74 120.45 202.64 119 203.773 117.8C204.94 116.6 206.306 115.667 207.873 115C209.473 114.333 211.206 114 213.073 114C214.973 114 216.706 114.333 218.273 115C219.873 115.667 221.24 116.6 222.373 117.8C223.506 119 224.39 120.45 225.023 122.15C225.656 123.85 225.973 125.733 225.973 127.8ZM218.373 127.8C218.373 125.5 217.906 123.7 216.973 122.4C216.073 121.067 214.773 120.4 213.073 120.4C211.373 120.4 210.056 121.067 209.123 122.4C208.19 123.7 207.723 125.5 207.723 127.8C207.723 130.1 208.19 131.933 209.123 133.3C210.056 134.633 211.373 135.3 213.073 135.3C214.773 135.3 216.073 134.633 216.973 133.3C217.906 131.933 218.373 130.1 218.373 127.8ZM231.494 108.15L238.944 106.95V114.7H247.894V120.9H238.944V130.15C238.944 131.717 239.211 132.967 239.744 133.9C240.311 134.833 241.427 135.3 243.094 135.3C243.894 135.3 244.711 135.233 245.544 135.1C246.411 134.933 247.194 134.717 247.894 134.45L248.944 140.25C248.044 140.617 247.044 140.933 245.944 141.2C244.844 141.467 243.494 141.6 241.894 141.6C239.861 141.6 238.177 141.333 236.844 140.8C235.511 140.233 234.444 139.467 233.644 138.5C232.844 137.5 232.277 136.3 231.944 134.9C231.644 133.5 231.494 131.95 231.494 130.25V108.15ZM263.034 135.8C263.768 135.8 264.468 135.783 265.134 135.75C265.801 135.717 266.334 135.667 266.734 135.6V129.95C266.434 129.883 265.984 129.817 265.384 129.75C264.784 129.683 264.234 129.65 263.734 129.65C263.034 129.65 262.368 129.7 261.734 129.8C261.134 129.867 260.601 130.017 260.134 130.25C259.668 130.483 259.301 130.8 259.034 131.2C258.768 131.6 258.634 132.1 258.634 132.7C258.634 133.867 259.018 134.683 259.784 135.15C260.584 135.583 261.668 135.8 263.034 135.8ZM262.434 114C264.634 114 266.468 114.25 267.934 114.75C269.401 115.25 270.568 115.967 271.434 116.9C272.334 117.833 272.968 118.967 273.334 120.3C273.701 121.633 273.884 123.117 273.884 124.75V140.25C272.818 140.483 271.334 140.75 269.434 141.05C267.534 141.383 265.234 141.55 262.534 141.55C260.834 141.55 259.284 141.4 257.884 141.1C256.518 140.8 255.334 140.317 254.334 139.65C253.334 138.95 252.568 138.05 252.034 136.95C251.501 135.85 251.234 134.5 251.234 132.9C251.234 131.367 251.534 130.067 252.134 129C252.768 127.933 253.601 127.083 254.634 126.45C255.668 125.817 256.851 125.367 258.184 125.1C259.518 124.8 260.901 124.65 262.334 124.65C263.301 124.65 264.151 124.7 264.884 124.8C265.651 124.867 266.268 124.967 266.734 125.1V124.4C266.734 123.133 266.351 122.117 265.584 121.35C264.818 120.583 263.484 120.2 261.584 120.2C260.318 120.2 259.068 120.3 257.834 120.5C256.601 120.667 255.534 120.917 254.634 121.25L253.684 115.25C254.118 115.117 254.651 114.983 255.284 114.85C255.951 114.683 256.668 114.55 257.434 114.45C258.201 114.317 259.001 114.217 259.834 114.15C260.701 114.05 261.568 114 262.434 114Z" fill="#5328FE"/>
</g>
<defs>
<filter id="filter0_d" x="23" y="21" width="374.626" height="162" filterUnits="userSpaceOnUse" color-interpolation-filters="sRGB">
<feFlood flood-opacity="0" result="BackgroundImageFix"/>
<feColorMatrix in="SourceAlpha" type="matrix" values="0 0 0 0 0 0 0 0 0 0 0 0 0 0 0 0 0 0 127 0"/>
<feOffset dy="2"/>
<feColorMatrix type="matrix" values="0 0 0 0 0 0 0 0 0 0 0 0 0 0 0 0 0 0 0.1 0"/>
<feBlend mode="normal" in2="BackgroundImageFix" result="effect1_dropShadow"/>
<feBlend mode="normal" in="SourceGraphic" in2="effect1_dropShadow" result="shape"/>
</filter>
</defs>
</svg>
